<?xml version="1.0" ?>
<svg style="enable-background:new 0 0 48 48;" version="1.1" viewBox="0 0 48 48" xml:space="preserve" xmlns="http://www.w3.org/2000/svg" ><g id="Icons"><g><linearGradient gradientUnits="userSpaceOnUse" id="SVGID_1_" x1="24" x2="24" y1="42.14653" y2="6.26123"><stop offset="0.09694" style="stop-color:#FFD879"/><stop offset="0.15387" style="stop-color:#FCCB76"/><stop offset="0.25828" style="stop-color:#F5AA6C"/><stop offset="0.39756" style="stop-color:#E9755E"/><stop offset="0.44898" style="stop-color:#E45F58"/><stop offset="0.67857" style="stop-color:#D22A9C"/><stop offset="1" style="stop-color:#6968DF"/></linearGradient><path d="M30.1311,35.0978H17.8689c-2.74303,0-4.9667-2.22366-4.9667-4.9667V17.8689    c0-2.74303,2.22367-4.9667,4.9667-4.9667H30.1311c2.74303,0,4.9667,2.22367,4.9667,4.9667V30.1311    C35.0978,32.87414,32.87414,35.0978,30.1311,35.0978z" style="fill:url(#SVGID_1_);"/><path d="    M30.1311,35.0978H17.8689c-2.74303,0-4.9667-2.22366-4.9667-4.9667V17.8689c0-2.74303,2.22367-4.9667,4.9667-4.9667H30.1311    c2.74303,0,4.9667,2.22367,4.9667,4.9667V30.1311C35.0978,32.87414,32.87414,35.0978,30.1311,35.0978z" style="fill:none;stroke:#303030;stroke-width:0.7;stroke-linecap:round;stroke-linejoin:round;stroke-miterlimit:10;"/><g><line style="fill:none;stroke:#FFFFFF;stroke-width:0.7;stroke-linecap:round;stroke-linejoin:round;stroke-miterlimit:10;" x1="24" x2="24" y1="20.14733" y2="27.85267"/><line style="fill:none;stroke:#FFFFFF;stroke-width:0.7;stroke-linecap:round;stroke-linejoin:round;stroke-miterlimit:10;" x1="20.14733" x2="27.85267" y1="24" y2="24"/></g></g></g></svg>
